<?xml version="1.0" encoding="UTF-8" standalone="no"?>
<!DOCTYPE svg PUBLIC "-//W3C//DTD SVG 1.1//EN" "http://www.w3.org/Graphics/SVG/1.1/DTD/svg11.dtd">
<svg width="100%" height="100%" viewBox="0 0 900 900" version="1.1" xmlns="http://www.w3.org/2000/svg" xmlns:xlink="http://www.w3.org/1999/xlink" xml:space="preserve" xmlns:serif="http://www.serif.com/" style="fill-rule:evenodd;clip-rule:evenodd;stroke-linejoin:round;stroke-miterlimit:2;">
    <g transform="matrix(1,0,0,1,-11160,-18150)">
        <rect id="smiley-svg" x="11160" y="18150" width="900" height="900" style="fill:none;"/>
        <g id="smiley-svg1" serif:id="smiley-svg">
            <g transform="matrix(1.5748,0,0,1.5748,10760,17750)">
                <path d="M444.5,317.5L444.5,254L635.294,254L635,317.5L762,317.5L762.353,444.5L825.5,444.5L825.5,635.029L762.353,635.029L762.353,761.971L635.294,761.971L635,825.5L444.5,825.5L444.5,761.971L317.5,761.971L317.5,635L254,635L254,444.5L317.5,444.5L317.5,317.5L444.5,317.5ZM635.029,381L571.5,381L571.5,508L635.029,508L635.029,381ZM635,635L698.529,635L698.529,571.471L635,571.471L635,635ZM444.5,635L444.5,698.5L635,698.5L635,635L444.5,635ZM444.5,635L444.5,571.5L380.971,571.5L380.971,635L444.5,635ZM508.029,381L444.5,381L444.5,508L508.029,508L508.029,381Z" style="fill:url(#_Linear1);"/>
            </g>
        </g>
    </g>
    <defs>
        <linearGradient id="_Linear1" x1="0" y1="0" x2="1" y2="0" gradientUnits="userSpaceOnUse" gradientTransform="matrix(2.29729e-12,-444.5,444.5,2.29729e-12,539.75,698.5)"><stop offset="0" style="stop-color:rgb(204,255,102);stop-opacity:1"/><stop offset="1" style="stop-color:rgb(255,255,102);stop-opacity:1"/></linearGradient>
    </defs>
</svg>
