<svg width="900" height="900" viewBox="0 0 900 900" fill="none" xmlns="http://www.w3.org/2000/svg">
<path fill-rule="evenodd" clip-rule="evenodd" d="M227.5 481.5H164V291H227.5V481.5ZM227.5 291V227.5H291V291H227.5ZM291 227.5V164H354.5V227.5H291ZM354.5 227.5H418V291H354.5V227.5ZM418 291H481.5V354.5H418V291ZM481.5 291V227.5H545V291H481.5ZM545 227.5V164H608.5V227.5H545ZM608.5 227.5H672V291H608.5V227.5ZM672 291H735.5V481.5H672V291ZM672 481.5V545H608.5V481.5H672ZM608.5 545V608.5H545V545H608.5ZM545 608.5V672H481.5V608.5H545ZM481.5 672V735.5H418V672H481.5ZM418 672H354.5V608.5H418V672ZM354.5 608.5H291V545H354.5V608.5ZM291 545H227.5V481.5H291V545Z" fill="#7C7C7C"/>
</svg>
