<?xml version="1.0" encoding="UTF-8" standalone="no"?>
<!DOCTYPE svg PUBLIC "-//W3C//DTD SVG 1.1//EN" "http://www.w3.org/Graphics/SVG/1.1/DTD/svg11.dtd">
<svg width="100%" height="100%" viewBox="0 0 900 900" version="1.1" xmlns="http://www.w3.org/2000/svg" xmlns:xlink="http://www.w3.org/1999/xlink" xml:space="preserve" xmlns:serif="http://www.serif.com/" style="fill-rule:evenodd;clip-rule:evenodd;stroke-linejoin:round;stroke-miterlimit:2;">
    <g transform="matrix(1,0,0,1,-3489,0)">
        <g id="download_icon" transform="matrix(0.45,0,0,0.45,3489,0)">
            <rect x="0" y="0" width="2000" height="2000" style="fill:none;"/>
            <g transform="matrix(15.5556,0,0,2.22222,-9777.78,-1777.78)">
                <path d="M671.429,1300L657.143,1300L657.143,1200L671.429,1200L671.429,1300ZM685.714,800L700,800L700,1300L714.286,1300L714.286,1400L700,1400L700,1500L685.714,1500L685.714,1400L671.429,1400L671.429,1300L685.714,1300L685.714,800ZM714.286,1300L714.286,1200L728.571,1200L728.571,1300L714.286,1300Z"/>
            </g>
            <g transform="matrix(15.5556,0,0,2.22222,-44328.9,1777.78)">
                <rect x="2864" y="0" width="100" height="100"/>
            </g>
        </g>
    </g>
</svg>
