<svg width="900" height="900" viewBox="0 0 900 900" fill="none" xmlns="http://www.w3.org/2000/svg">
<g clip-path="url(#clip0_601_14862)">
<path fill-rule="evenodd" clip-rule="evenodd" d="M700 100.002V1.19249e-06L600 0V100.002H700ZM42.0001 199.997V300H700V400.002H799.999V300H899.999L899.999 199.997H799.999V100.002H700L700 199.997H42.0001ZM700 400.002H600V499.997H700V400.002Z" fill="black"/>
<path d="M900 900H0V800H900V900Z" fill="black"/>
<path d="M100 200V900H0V200L100 200Z" fill="black"/>
<path d="M900 500L900 900H800L800 500H900Z" fill="black"/>
</g>
<defs>
<clipPath id="clip0_601_14862">
<rect width="900" height="900" fill="white" transform="matrix(-1 0 0 -1 900 900)"/>
</clipPath>
</defs>
</svg>
