<?xml version="1.0" encoding="UTF-8" standalone="no"?>
<!DOCTYPE svg PUBLIC "-//W3C//DTD SVG 1.1//EN" "http://www.w3.org/Graphics/SVG/1.1/DTD/svg11.dtd">
<svg width="100%" height="100%" viewBox="0 0 1080 1080" version="1.1" xmlns="http://www.w3.org/2000/svg" xmlns:xlink="http://www.w3.org/1999/xlink" xml:space="preserve" xmlns:serif="http://www.serif.com/" style="fill-rule:evenodd;clip-rule:evenodd;stroke-linejoin:round;stroke-miterlimit:2;">
    <g transform="matrix(1,0,0,1,-23354,-17039)">
        <g id="eraser" transform="matrix(1,0,0,1,23354,17039)">
            <rect x="0" y="0" width="1080" height="1080" style="fill:none;"/>
            <g transform="matrix(1,0,0,1,-22134.7,-17230.2)">
                <path d="M22769.9,17547.7L22833.4,17547.7L22833.4,17611.2L22896.7,17611.2L22896.7,17674.7L22833.2,17674.7L22833.2,17611.2L22769.9,17611.2L22769.9,17547.7ZM22579.5,17611.2L22579.5,17547.7L22642.7,17547.7L22642.7,17484.2L22769.9,17484.2L22769.9,17547.7L22643,17547.7L22643,17611.2L22579.5,17611.2ZM22579.5,17611.2L22579.5,17674.7L22516,17674.7L22516,17611.2L22579.5,17611.2ZM22769.7,17928.7L22769.7,17992.2L22706.4,17992.2L22706.4,18055.7L22579.2,18055.7L22579.2,17992.2L22515.7,17992.2L22515.7,17928.7L22452.2,17928.7L22452.2,17865.2L22388.7,17865.2L22388.7,17738.5L22452.2,17738.5L22452.3,17674.7L22515.8,17674.7L22515.7,17738.5L22579.2,17738.5L22579.2,17801.7L22642.9,17801.7L22642.7,17865.2L22706.4,17865.2L22706.4,17928.7L22769.7,17928.7ZM22833.2,17865.2L22833.2,17801.7L22896.7,17801.7L22896.7,17675L22960.2,17675L22960.2,17802L22896.7,17802L22896.7,17865.2L22833.2,17865.2ZM22769.7,17928.7L22769.7,17865.2L22833.2,17865.2L22833.2,17928.7L22769.7,17928.7Z"/>
            </g>
        </g>
    </g>
</svg>
