<svg width="900" height="900" viewBox="0 0 900 900" fill="none" xmlns="http://www.w3.org/2000/svg">
<g clip-path="url(#clip0_602_14865)">
<path fill-rule="evenodd" clip-rule="evenodd" d="M299.997 99.6289H599.946V199.629H699.946V299.629H799.946V599.628H699.946V699.628H599.946V799.628H299.947V699.628H199.947V599.628H99.9473V299.999H-0.00195312V599.999H99.9978V799.953H299.997V899.998H599.997L600.46 799.953H800.552V600.044H899.996V299.999H800.552L799.996 99.9998H599.997L600.46 0H299.997V99.6289ZM99.9978 299.629H199.947V199.629H299.947V99.9998H99.9978V299.629Z" fill="black"/>
<path d="M500.046 200H400V299.953H500.046V200Z" fill="black"/>
<path d="M500 400H400V700H500V400Z" fill="black"/>
</g>
<defs>
<clipPath id="clip0_602_14865">
<rect width="900" height="900" fill="white"/>
</clipPath>
</defs>
</svg>
