<?xml version="1.0" encoding="UTF-8" standalone="no"?>
<!DOCTYPE svg PUBLIC "-//W3C//DTD SVG 1.1//EN" "http://www.w3.org/Graphics/SVG/1.1/DTD/svg11.dtd">
<svg width="100%" height="100%" viewBox="0 0 44 29" version="1.1" xmlns="http://www.w3.org/2000/svg" xmlns:xlink="http://www.w3.org/1999/xlink" xml:space="preserve" xmlns:serif="http://www.serif.com/" style="fill-rule:evenodd;clip-rule:evenodd;stroke-linejoin:round;stroke-miterlimit:2;">
    <path d="M13.774,7.61C14.574,-2.3 29.426,-2.299 30.226,7.611C37.885,1.066 48.63,12.132 41.495,19.723C41.332,19.898 41.165,20.071 40.996,20.24C32.857,28.434 22.001,28.427 22,28.427C21.998,28.427 11.144,28.434 3.004,20.239C2.836,20.069 2.67,19.897 2.506,19.724C-4.629,12.141 6.109,1.067 13.774,7.61ZM24.818,21.893C24.526,21.733 24.163,21.848 23.929,22.083C23.476,22.536 22.789,22.846 21.995,22.846C21.199,22.846 20.513,22.539 20.061,22.086C19.827,21.85 19.464,21.735 19.172,21.893C18.88,22.051 18.768,22.421 18.977,22.679C19.663,23.523 20.773,24.049 21.995,24.049C23.217,24.049 24.326,23.518 25.01,22.68C25.22,22.422 25.11,22.052 24.818,21.893ZM28.093,16.262C30.068,16.262 31.592,17.471 31.921,18.948C31.993,19.272 32.256,19.545 32.588,19.545C32.921,19.545 33.195,19.273 33.146,18.945C32.809,16.692 30.604,15.059 28.093,15.059C25.581,15.059 23.376,16.692 23.04,18.945C22.991,19.273 23.265,19.545 23.598,19.545L23.738,19.545C23.993,19.545 24.196,19.337 24.238,19.086C24.314,18.64 24.499,18.216 24.772,17.838C24.802,17.796 24.869,17.821 24.869,17.873C24.869,18.837 25.645,19.619 26.603,19.619C27.561,19.619 28.337,18.837 28.337,17.873C28.337,17.448 28.186,17.059 27.936,16.756C27.794,16.585 27.871,16.262 28.093,16.262ZM12.695,17.873C12.695,18.837 13.472,19.619 14.429,19.619C15.387,19.619 16.163,18.837 16.163,17.873C16.163,17.422 15.993,17.01 15.714,16.7C15.594,16.567 15.659,16.313 15.839,16.313C17.814,16.313 19.338,17.521 19.667,18.999C19.739,19.323 20.002,19.596 20.334,19.596C20.667,19.596 20.941,19.324 20.892,18.996C20.556,16.742 18.351,15.109 15.839,15.109C13.328,15.109 11.122,16.742 10.786,18.996C10.737,19.324 11.011,19.596 11.344,19.596L11.447,19.596C11.722,19.596 11.941,19.371 11.991,19.1C12.075,18.641 12.274,18.206 12.567,17.823C12.608,17.768 12.695,17.805 12.695,17.873Z" style="fill:white;"/>
</svg>
