<?xml version="1.0" encoding="UTF-8" standalone="no"?>
<!DOCTYPE svg PUBLIC "-//W3C//DTD SVG 1.1//EN" "http://www.w3.org/Graphics/SVG/1.1/DTD/svg11.dtd">
<svg width="100%" height="100%" viewBox="0 0 1080 1080" version="1.1" xmlns="http://www.w3.org/2000/svg" xmlns:xlink="http://www.w3.org/1999/xlink" xml:space="preserve" xmlns:serif="http://www.serif.com/" style="fill-rule:evenodd;clip-rule:evenodd;stroke-linejoin:round;stroke-miterlimit:2;">
    <g transform="matrix(1,0,0,1,-22139,-17039)">
        <g id="pencil" transform="matrix(1,0,0,1,22139,17039)">
            <rect x="0" y="0" width="1080" height="1080" style="fill:none;"/>
            <g transform="matrix(1,0,0,1,-22134.9,-17039.5)">
                <path d="M22388.7,17865.2L22388.7,17674.7L22452.2,17674.7L22452.2,17738.2L22515.7,17738.2L22515.7,17801.7L22579.2,17801.7L22579.2,17865.2L22388.7,17865.2ZM22452.2,17674.7L22452.2,17611.2L22515.7,17611.2L22515.7,17548L22579.2,17548L22579.2,17611.5L22515.7,17611.5L22515.7,17674.7L22452.2,17674.7ZM22579.2,17801.7L22579.2,17738.2L22642.7,17738.2L22642.7,17801.7L22579.2,17801.7ZM22706.4,17675L22706.4,17738.2L22642.9,17738.2L22642.9,17674.7L22706.4,17674.7L22706.4,17611.5L22769.9,17611.5L22769.9,17675L22706.4,17675ZM22833.4,17547.7L22833.4,17611.2L22769.9,17611.2L22769.9,17547.7L22833.4,17547.7ZM22706.4,17420.7L22706.4,17357.2L22769.9,17357.2L22769.9,17293.7L22896.9,17293.7L22896.9,17357.2L22960.2,17357.2L22960.2,17420.7L22960.4,17420.7L22960.4,17484.2L22896.9,17484.2L22896.9,17547.7L22833.4,17547.7L22833.4,17484.2L22769.9,17484.2L22769.9,17420.7L22706.4,17420.7ZM22706.4,17420.7L22706.4,17484.2L22642.9,17484.2L22642.9,17420.7L22706.4,17420.7ZM22642.7,17484.2L22642.7,17547.7L22579.2,17547.7L22579.2,17484.2L22642.7,17484.2Z"/>
            </g>
        </g>
    </g>
</svg>
