<?xml version="1.0" encoding="UTF-8" standalone="no"?>
<!DOCTYPE svg PUBLIC "-//W3C//DTD SVG 1.1//EN" "http://www.w3.org/Graphics/SVG/1.1/DTD/svg11.dtd">
<svg width="100%" height="100%" viewBox="0 0 900 900" version="1.1" xmlns="http://www.w3.org/2000/svg" xmlns:xlink="http://www.w3.org/1999/xlink" xml:space="preserve" xmlns:serif="http://www.serif.com/" style="fill-rule:evenodd;clip-rule:evenodd;stroke-linejoin:round;stroke-miterlimit:2;">
    <g transform="matrix(1,0,0,1,-1262,0)">
        <g id="switch-colors" transform="matrix(0.45,0,0,0.45,1262,0)">
            <rect x="0" y="0" width="2000" height="2000" style="fill:none;"/>
            <clipPath id="_clip1">
                <rect x="0" y="0" width="2000" height="2000"/>
            </clipPath>
            <g clip-path="url(#_clip1)">
                <g transform="matrix(15.5556,0,0,2.22222,-9333.33,-1333.33)">
                    <path d="M628.571,1000L642.857,1000L642.857,1100L628.571,1100L628.571,1000ZM671.429,1300L657.143,1300L657.143,1200L671.429,1200L671.429,1300ZM614.286,900L600,900L600,800L614.286,800L614.286,700L628.571,700L628.571,800L700,800L700,1300L714.286,1300L714.286,1400L700,1400L700,1500L685.714,1500L685.714,1400L671.429,1400L671.429,1300L685.714,1300L685.714,900L628.571,900L628.571,1000L614.286,1000L614.286,900ZM714.286,1300L714.286,1200L728.571,1200L728.571,1300L714.286,1300ZM628.571,700L628.571,600L642.857,600L642.857,700L628.571,700Z" style="fill:rgb(204,255,102);"/>
                </g>
            </g>
        </g>
    </g>
</svg>
