<svg width="170" height="156" viewBox="0 0 170 156" fill="none" xmlns="http://www.w3.org/2000/svg">
<g clip-path="url(#clip0_136_3)">
<path fill-rule="evenodd" clip-rule="evenodd" d="M57.5 155.75H1.5V149.75C1.5 146.989 3.739 144.75 6.5 144.75H7.5V138.75C7.5 135.989 9.739 133.75 12.5 133.75V44.75H7L0.5 22.75H29.5V0.75H138.5V22.75H169.5L163 44.75H157.5V133.75C160.261 133.75 162.5 135.989 162.5 138.75V144.75H163.5C166.261 144.75 168.5 146.989 168.5 149.75V155.75H112.5V149.75C112.5 146.989 114.739 144.75 117.5 144.75H118.5V138.75C118.5 136.331 120.218 134.313 122.5 133.85V84.75H122.343C120.575 65.127 104.083 49.75 84 49.75C63.917 49.75 47.425 65.127 45.657 84.75H45.5V133.75H46.5C49.261 133.75 51.5 135.989 51.5 138.75V144.75H52.5C55.261 144.75 57.5 146.989 57.5 149.75V155.75Z" fill="white"/>
</g>
<defs>
<clipPath id="clip0_136_3">
<rect width="169" height="155" fill="white" transform="translate(0.5 0.75)"/>
</clipPath>
</defs>
</svg>
